<svg width="274" height="78" viewBox="0 0 274 78" fill="none" xmlns="http://www.w3.org/2000/svg">
<g clip-path="url(#clip0_665_210)">
<path d="M35.8409 52.25C26.125 56.5682 19.4318 66.2841 19.4318 77.7273" stroke="#5F6B8A" stroke-width="6.81818" stroke-miterlimit="10" stroke-linecap="round" stroke-linejoin="round"/>
<path d="M75.5682 77.7273C75.5682 66.2841 68.875 56.5682 59.1591 52.25" stroke="#5F6B8A" stroke-width="6.81818" stroke-miterlimit="10" stroke-linecap="round" stroke-linejoin="round"/>
<path d="M47.5 56.1363C58.2319 56.1363 66.9318 47.4364 66.9318 36.7045C66.9318 25.9726 58.2319 17.2727 47.5 17.2727C36.7681 17.2727 28.0682 25.9726 28.0682 36.7045C28.0682 47.4364 36.7681 56.1363 47.5 56.1363Z" stroke="#5F6B8A" stroke-width="6.81818" stroke-miterlimit="10" stroke-linecap="round" stroke-linejoin="round"/>
<path fill-rule="evenodd" clip-rule="evenodd" d="M82.5 19C81.1193 19 80 20.1193 80 21.5V27H74.5C73.1193 27 72 28.1193 72 29.5C72 30.8807 73.1193 32 74.5 32H80V37.5C80 38.8807 81.1193 40 82.5 40C83.8807 40 85 38.8807 85 37.5V32H90.5C91.8807 32 93 30.8807 93 29.5C93 28.1193 91.8807 27 90.5 27H85V21.5C85 20.1193 83.8807 19 82.5 19Z" fill="#5F6B8A"/>
</g>
<path d="M139.152 19.31H140.898V32H139.476L132.222 22.424V32H130.476V19.31H131.88L139.152 28.904V19.31ZM151.161 27.914H144.951C145.083 29.774 146.007 30.704 147.723 30.704C148.731 30.704 149.643 30.374 150.459 29.714L151.017 30.992C150.609 31.34 150.105 31.616 149.505 31.82C148.905 32.024 148.293 32.126 147.669 32.126C146.265 32.126 145.155 31.724 144.339 30.92C143.535 30.116 143.133 29.006 143.133 27.59C143.133 26.69 143.307 25.892 143.655 25.196C144.015 24.5 144.513 23.96 145.149 23.576C145.797 23.192 146.529 23 147.345 23C148.533 23 149.463 23.384 150.135 24.152C150.819 24.92 151.161 25.982 151.161 27.338V27.914ZM147.381 24.332C146.685 24.332 146.127 24.554 145.707 24.998C145.299 25.43 145.053 26.054 144.969 26.87H149.595C149.559 26.054 149.349 25.43 148.965 24.998C148.593 24.554 148.065 24.332 147.381 24.332ZM160.688 27.914H154.478C154.61 29.774 155.534 30.704 157.25 30.704C158.258 30.704 159.17 30.374 159.986 29.714L160.544 30.992C160.136 31.34 159.632 31.616 159.032 31.82C158.432 32.024 157.82 32.126 157.196 32.126C155.792 32.126 154.682 31.724 153.866 30.92C153.062 30.116 152.66 29.006 152.66 27.59C152.66 26.69 152.834 25.892 153.182 25.196C153.542 24.5 154.04 23.96 154.676 23.576C155.324 23.192 156.056 23 156.872 23C158.06 23 158.99 23.384 159.662 24.152C160.346 24.92 160.688 25.982 160.688 27.338V27.914ZM156.908 24.332C156.212 24.332 155.654 24.554 155.234 24.998C154.826 25.43 154.58 26.054 154.496 26.87H159.122C159.086 26.054 158.876 25.43 158.492 24.998C158.12 24.554 157.592 24.332 156.908 24.332ZM170.792 19.31V32H168.992V30.488C168.728 31.016 168.344 31.424 167.84 31.712C167.336 31.988 166.754 32.126 166.094 32.126C165.338 32.126 164.66 31.934 164.06 31.55C163.472 31.166 163.01 30.626 162.674 29.93C162.35 29.234 162.188 28.436 162.188 27.536C162.188 26.624 162.35 25.826 162.674 25.142C163.01 24.458 163.472 23.93 164.06 23.558C164.648 23.186 165.326 23 166.094 23C166.754 23 167.33 23.144 167.822 23.432C168.326 23.708 168.71 24.104 168.974 24.62V19.31H170.792ZM166.526 30.686C167.318 30.686 167.924 30.416 168.344 29.876C168.776 29.336 168.992 28.568 168.992 27.572C168.992 26.576 168.776 25.808 168.344 25.268C167.924 24.728 167.318 24.458 166.526 24.458C165.734 24.458 165.116 24.728 164.672 25.268C164.24 25.796 164.024 26.552 164.024 27.536C164.024 28.52 164.246 29.294 164.69 29.858C165.134 30.41 165.746 30.686 166.526 30.686ZM181.745 23C182.921 23 183.791 23.294 184.355 23.882C184.931 24.47 185.219 25.364 185.219 26.564V32H183.473V30.542C183.245 31.058 182.903 31.454 182.447 31.73C182.003 31.994 181.481 32.126 180.881 32.126C180.305 32.126 179.777 32.012 179.297 31.784C178.817 31.544 178.439 31.214 178.163 30.794C177.899 30.374 177.767 29.906 177.767 29.39C177.767 28.754 177.929 28.256 178.253 27.896C178.589 27.524 179.135 27.26 179.891 27.104C180.659 26.948 181.709 26.87 183.041 26.87H183.455V26.348C183.455 25.676 183.311 25.19 183.023 24.89C182.747 24.59 182.291 24.44 181.655 24.44C180.659 24.44 179.663 24.746 178.667 25.358L178.127 24.08C178.595 23.756 179.159 23.498 179.819 23.306C180.491 23.102 181.133 23 181.745 23ZM181.205 30.776C181.865 30.776 182.405 30.554 182.825 30.11C183.245 29.654 183.455 29.072 183.455 28.364V27.896H183.131C182.195 27.896 181.475 27.938 180.971 28.022C180.467 28.106 180.107 28.25 179.891 28.454C179.675 28.646 179.567 28.928 179.567 29.3C179.567 29.72 179.717 30.074 180.017 30.362C180.329 30.638 180.725 30.776 181.205 30.776ZM192.439 23C194.539 23 195.589 24.182 195.589 26.546V32H193.771V26.636C193.771 25.892 193.621 25.346 193.321 24.998C193.033 24.65 192.577 24.476 191.953 24.476C191.221 24.476 190.633 24.704 190.189 25.16C189.745 25.616 189.523 26.228 189.523 26.996V32H187.705V23.216H189.487V24.62C189.775 24.092 190.177 23.69 190.693 23.414C191.209 23.138 191.791 23 192.439 23ZM206.495 23C207.671 23 208.541 23.294 209.105 23.882C209.681 24.47 209.969 25.364 209.969 26.564V32H208.223V30.542C207.995 31.058 207.653 31.454 207.197 31.73C206.753 31.994 206.231 32.126 205.631 32.126C205.055 32.126 204.527 32.012 204.047 31.784C203.567 31.544 203.189 31.214 202.913 30.794C202.649 30.374 202.517 29.906 202.517 29.39C202.517 28.754 202.679 28.256 203.003 27.896C203.339 27.524 203.885 27.26 204.641 27.104C205.409 26.948 206.459 26.87 207.791 26.87H208.205V26.348C208.205 25.676 208.061 25.19 207.773 24.89C207.497 24.59 207.041 24.44 206.405 24.44C205.409 24.44 204.413 24.746 203.417 25.358L202.877 24.08C203.345 23.756 203.909 23.498 204.569 23.306C205.241 23.102 205.883 23 206.495 23ZM205.955 30.776C206.615 30.776 207.155 30.554 207.575 30.11C207.995 29.654 208.205 29.072 208.205 28.364V27.896H207.881C206.945 27.896 206.225 27.938 205.721 28.022C205.217 28.106 204.857 28.25 204.641 28.454C204.425 28.646 204.317 28.928 204.317 29.3C204.317 29.72 204.467 30.074 204.767 30.362C205.079 30.638 205.475 30.776 205.955 30.776ZM216.307 32.126C215.419 32.126 214.645 31.94 213.985 31.568C213.337 31.196 212.833 30.674 212.473 30.002C212.125 29.318 211.951 28.52 211.951 27.608C211.951 26.696 212.131 25.892 212.491 25.196C212.863 24.5 213.379 23.96 214.039 23.576C214.711 23.192 215.491 23 216.379 23C216.991 23 217.579 23.102 218.143 23.306C218.719 23.51 219.187 23.786 219.547 24.134L218.989 25.43C218.197 24.782 217.375 24.458 216.523 24.458C215.683 24.458 215.023 24.734 214.543 25.286C214.075 25.826 213.841 26.594 213.841 27.59C213.841 28.574 214.075 29.336 214.543 29.876C215.011 30.404 215.671 30.668 216.523 30.668C217.375 30.668 218.197 30.344 218.989 29.696L219.547 31.01C219.163 31.358 218.683 31.634 218.107 31.838C217.531 32.03 216.931 32.126 216.307 32.126ZM225.008 32.126C224.12 32.126 223.346 31.94 222.686 31.568C222.038 31.196 221.534 30.674 221.174 30.002C220.826 29.318 220.652 28.52 220.652 27.608C220.652 26.696 220.832 25.892 221.192 25.196C221.564 24.5 222.08 23.96 222.74 23.576C223.412 23.192 224.192 23 225.08 23C225.692 23 226.28 23.102 226.844 23.306C227.42 23.51 227.888 23.786 228.248 24.134L227.69 25.43C226.898 24.782 226.076 24.458 225.224 24.458C224.384 24.458 223.724 24.734 223.244 25.286C222.776 25.826 222.542 26.594 222.542 27.59C222.542 28.574 222.776 29.336 223.244 29.876C223.712 30.404 224.372 30.668 225.224 30.668C226.076 30.668 226.898 30.344 227.69 29.696L228.248 31.01C227.864 31.358 227.384 31.634 226.808 31.838C226.232 32.03 225.632 32.126 225.008 32.126ZM233.674 32.126C232.81 32.126 232.048 31.94 231.388 31.568C230.74 31.196 230.236 30.668 229.876 29.984C229.528 29.288 229.354 28.484 229.354 27.572C229.354 26.648 229.528 25.844 229.876 25.16C230.236 24.464 230.74 23.93 231.388 23.558C232.048 23.186 232.81 23 233.674 23C234.538 23 235.294 23.186 235.942 23.558C236.602 23.93 237.106 24.464 237.454 25.16C237.814 25.844 237.994 26.648 237.994 27.572C237.994 28.484 237.814 29.288 237.454 29.984C237.106 30.668 236.602 31.196 235.942 31.568C235.294 31.94 234.538 32.126 233.674 32.126ZM233.674 30.686C234.478 30.686 235.09 30.422 235.51 29.894C235.942 29.366 236.158 28.592 236.158 27.572C236.158 26.564 235.942 25.796 235.51 25.268C235.078 24.728 234.466 24.458 233.674 24.458C232.882 24.458 232.27 24.728 231.838 25.268C231.406 25.796 231.19 26.564 231.19 27.572C231.19 28.592 231.4 29.366 231.82 29.894C232.252 30.422 232.87 30.686 233.674 30.686ZM247.722 23.216V32H245.958V30.578C245.682 31.082 245.298 31.466 244.806 31.73C244.326 31.994 243.786 32.126 243.186 32.126C241.05 32.126 239.982 30.95 239.982 28.598V23.216H241.8V28.58C241.8 29.288 241.944 29.81 242.232 30.146C242.52 30.482 242.964 30.65 243.564 30.65C244.272 30.65 244.836 30.422 245.256 29.966C245.688 29.51 245.904 28.904 245.904 28.148V23.216H247.722ZM255 23C257.1 23 258.15 24.182 258.15 26.546V32H256.332V26.636C256.332 25.892 256.182 25.346 255.882 24.998C255.594 24.65 255.138 24.476 254.514 24.476C253.782 24.476 253.194 24.704 252.75 25.16C252.306 25.616 252.084 26.228 252.084 26.996V32H250.266V23.216H252.048V24.62C252.336 24.092 252.738 23.69 253.254 23.414C253.77 23.138 254.352 23 255 23ZM264.795 30.722C265.071 30.722 265.341 30.704 265.605 30.668L265.515 32.054C265.215 32.102 264.903 32.126 264.579 32.126C263.439 32.126 262.587 31.85 262.023 31.298C261.471 30.734 261.195 29.924 261.195 28.868V24.62H259.485V23.216H261.195V20.57H263.013V23.216H265.425V24.62H263.013V28.796C263.013 30.08 263.607 30.722 264.795 30.722ZM269.105 27.914C269.105 27.206 269.231 26.606 269.483 26.114C269.735 25.622 270.101 25.082 270.581 24.494C270.965 24.014 271.247 23.612 271.427 23.288C271.607 22.964 271.697 22.598 271.697 22.19C271.697 21.722 271.535 21.356 271.211 21.092C270.887 20.828 270.437 20.696 269.861 20.696C269.321 20.696 268.757 20.816 268.169 21.056C267.593 21.284 267.029 21.62 266.477 22.064L265.811 20.696C266.315 20.228 266.945 19.856 267.701 19.58C268.457 19.304 269.213 19.166 269.969 19.166C271.037 19.166 271.901 19.43 272.561 19.958C273.221 20.486 273.551 21.182 273.551 22.046C273.551 22.478 273.473 22.88 273.317 23.252C273.173 23.624 272.987 23.954 272.759 24.242C272.543 24.518 272.249 24.866 271.877 25.286C271.361 25.85 270.971 26.33 270.707 26.726C270.455 27.122 270.299 27.578 270.239 28.094L270.167 28.49H269.105V27.914ZM268.583 32V29.858H270.725V32H268.583Z" fill="#5F6B8A"/>
<path d="M138.338 54H136.378L134.684 50.85C134.525 50.5513 134.329 50.3413 134.096 50.22C133.863 50.0987 133.569 50.038 133.214 50.038H131.842V54H130.064V44.13H134.432C135.552 44.13 136.401 44.382 136.98 44.886C137.568 45.3807 137.862 46.0993 137.862 47.042C137.862 47.798 137.647 48.4233 137.218 48.918C136.798 49.4033 136.201 49.7207 135.426 49.87C135.949 50.01 136.369 50.3787 136.686 50.976L138.338 54ZM134.18 48.652C134.861 48.652 135.361 48.526 135.678 48.274C135.995 48.0127 136.154 47.616 136.154 47.084C136.154 46.5427 135.995 46.1507 135.678 45.908C135.361 45.656 134.861 45.53 134.18 45.53H131.828V48.652H134.18ZM145.65 50.892H140.988C141.044 51.5267 141.236 51.998 141.562 52.306C141.889 52.614 142.356 52.768 142.962 52.768C143.718 52.768 144.409 52.5253 145.034 52.04L145.538 53.244C145.221 53.5053 144.82 53.7153 144.334 53.874C143.858 54.0327 143.378 54.112 142.892 54.112C141.772 54.112 140.886 53.7947 140.232 53.16C139.588 52.5253 139.266 51.6573 139.266 50.556C139.266 49.856 139.406 49.2353 139.686 48.694C139.966 48.1527 140.358 47.7327 140.862 47.434C141.376 47.1353 141.954 46.986 142.598 46.986C143.541 46.986 144.283 47.2893 144.824 47.896C145.375 48.5027 145.65 49.338 145.65 50.402V50.892ZM142.64 48.218C142.174 48.218 141.796 48.3673 141.506 48.666C141.226 48.9647 141.054 49.394 140.988 49.954H144.152C144.134 49.3847 143.994 48.9553 143.732 48.666C143.471 48.3673 143.107 48.218 142.64 48.218ZM153.746 47.154V53.37C153.746 54.4433 153.447 55.2553 152.85 55.806C152.262 56.3567 151.389 56.632 150.232 56.632C149.635 56.632 149.061 56.5527 148.51 56.394C147.959 56.2447 147.479 56.03 147.068 55.75L147.558 54.518C148.407 55.0313 149.285 55.288 150.19 55.288C151.403 55.288 152.01 54.6907 152.01 53.496V52.6C151.805 52.9827 151.506 53.2813 151.114 53.496C150.722 53.7013 150.274 53.804 149.77 53.804C149.173 53.804 148.641 53.664 148.174 53.384C147.717 53.0947 147.357 52.6933 147.096 52.18C146.835 51.6667 146.704 51.074 146.704 50.402C146.704 49.73 146.83 49.1373 147.082 48.624C147.343 48.1013 147.707 47.7 148.174 47.42C148.641 47.1307 149.173 46.986 149.77 46.986C150.274 46.986 150.722 47.0933 151.114 47.308C151.506 47.5133 151.805 47.8073 152.01 48.19V47.154H153.746ZM150.232 52.446C150.792 52.446 151.226 52.264 151.534 51.9C151.851 51.536 152.01 51.0367 152.01 50.402C152.01 49.758 151.851 49.254 151.534 48.89C151.226 48.526 150.792 48.344 150.232 48.344C149.681 48.344 149.247 48.526 148.93 48.89C148.613 49.254 148.454 49.758 148.454 50.402C148.454 51.0273 148.613 51.5267 148.93 51.9C149.247 52.264 149.681 52.446 150.232 52.446ZM155.558 54V47.154H157.308V54H155.558ZM155.46 43.976H157.392V45.698H155.46V43.976ZM161.633 54.112C161.026 54.112 160.466 54.0373 159.953 53.888C159.449 53.7387 159.02 53.524 158.665 53.244L159.155 52.026C159.883 52.558 160.718 52.824 161.661 52.824C162.062 52.824 162.366 52.7587 162.571 52.628C162.786 52.4973 162.893 52.3107 162.893 52.068C162.893 51.8627 162.818 51.704 162.669 51.592C162.529 51.48 162.272 51.3773 161.899 51.284L160.779 51.032C160.144 50.892 159.673 50.6633 159.365 50.346C159.057 50.0287 158.903 49.618 158.903 49.114C158.903 48.694 159.02 48.3253 159.253 48.008C159.496 47.6813 159.827 47.4293 160.247 47.252C160.676 47.0747 161.171 46.986 161.731 46.986C162.216 46.986 162.683 47.0607 163.131 47.21C163.588 47.3593 163.99 47.5693 164.335 47.84L163.845 49.03C163.136 48.5167 162.426 48.26 161.717 48.26C161.334 48.26 161.036 48.33 160.821 48.47C160.606 48.61 160.499 48.806 160.499 49.058C160.499 49.2447 160.564 49.3987 160.695 49.52C160.835 49.6413 161.054 49.7347 161.353 49.8L162.515 50.066C163.196 50.2153 163.696 50.4533 164.013 50.78C164.33 51.0973 164.489 51.5173 164.489 52.04C164.489 52.6747 164.232 53.1787 163.719 53.552C163.206 53.9253 162.51 54.112 161.633 54.112ZM169.34 52.796C169.545 52.796 169.76 52.782 169.984 52.754L169.9 54.056C169.62 54.084 169.363 54.098 169.13 54.098C168.168 54.098 167.459 53.8787 167.002 53.44C166.544 52.992 166.316 52.3293 166.316 51.452V48.47H165V47.154H166.316V45.11H168.066V47.154H169.872V48.47H168.066V51.424C168.066 52.3387 168.49 52.796 169.34 52.796ZM177.014 50.892H172.352C172.408 51.5267 172.599 51.998 172.926 52.306C173.252 52.614 173.719 52.768 174.326 52.768C175.082 52.768 175.772 52.5253 176.398 52.04L176.902 53.244C176.584 53.5053 176.183 53.7153 175.698 53.874C175.222 54.0327 174.741 54.112 174.256 54.112C173.136 54.112 172.249 53.7947 171.596 53.16C170.952 52.5253 170.63 51.6573 170.63 50.556C170.63 49.856 170.77 49.2353 171.05 48.694C171.33 48.1527 171.722 47.7327 172.226 47.434C172.739 47.1353 173.318 46.986 173.962 46.986C174.904 46.986 175.646 47.2893 176.188 47.896C176.738 48.5027 177.014 49.338 177.014 50.402V50.892ZM174.004 48.218C173.537 48.218 173.159 48.3673 172.87 48.666C172.59 48.9647 172.417 49.394 172.352 49.954H175.516C175.497 49.3847 175.357 48.9553 175.096 48.666C174.834 48.3673 174.47 48.218 174.004 48.218ZM182.953 48.442L181.931 48.54C180.774 48.6613 180.195 49.2493 180.195 50.304V54H178.445V47.154H180.111V48.358C180.466 47.5367 181.198 47.0887 182.309 47.014L182.841 46.972L182.953 48.442ZM191.581 46.986C192.403 46.986 193.014 47.2193 193.415 47.686C193.817 48.1527 194.017 48.8573 194.017 49.8V54H192.267V49.898C192.267 49.366 192.165 48.9787 191.959 48.736C191.763 48.4933 191.451 48.372 191.021 48.372C190.517 48.372 190.111 48.5307 189.803 48.848C189.505 49.1653 189.355 49.59 189.355 50.122V54H187.605V44.13H189.355V48.106C189.589 47.742 189.897 47.4667 190.279 47.28C190.671 47.084 191.105 46.986 191.581 46.986ZM201.801 50.892H197.139C197.195 51.5267 197.386 51.998 197.713 52.306C198.039 52.614 198.506 52.768 199.113 52.768C199.869 52.768 200.559 52.5253 201.185 52.04L201.689 53.244C201.371 53.5053 200.97 53.7153 200.485 53.874C200.009 54.0327 199.528 54.112 199.043 54.112C197.923 54.112 197.036 53.7947 196.383 53.16C195.739 52.5253 195.417 51.6573 195.417 50.556C195.417 49.856 195.557 49.2353 195.837 48.694C196.117 48.1527 196.509 47.7327 197.013 47.434C197.526 47.1353 198.105 46.986 198.749 46.986C199.691 46.986 200.433 47.2893 200.975 47.896C201.525 48.5027 201.801 49.338 201.801 50.402V50.892ZM198.791 48.218C198.324 48.218 197.946 48.3673 197.657 48.666C197.377 48.9647 197.204 49.394 197.139 49.954H200.303C200.284 49.3847 200.144 48.9553 199.883 48.666C199.621 48.3673 199.257 48.218 198.791 48.218ZM207.74 48.442L206.718 48.54C205.561 48.6613 204.982 49.2493 204.982 50.304V54H203.232V47.154H204.898V48.358C205.253 47.5367 205.986 47.0887 207.096 47.014L207.628 46.972L207.74 48.442ZM214.461 50.892H209.799C209.855 51.5267 210.046 51.998 210.373 52.306C210.7 52.614 211.166 52.768 211.773 52.768C212.529 52.768 213.22 52.5253 213.845 52.04L214.349 53.244C214.032 53.5053 213.63 53.7153 213.145 53.874C212.669 54.0327 212.188 54.112 211.703 54.112C210.583 54.112 209.696 53.7947 209.043 53.16C208.399 52.5253 208.077 51.6573 208.077 50.556C208.077 49.856 208.217 49.2353 208.497 48.694C208.777 48.1527 209.169 47.7327 209.673 47.434C210.186 47.1353 210.765 46.986 211.409 46.986C212.352 46.986 213.094 47.2893 213.635 47.896C214.186 48.5027 214.461 49.338 214.461 50.402V50.892ZM211.451 48.218C210.984 48.218 210.606 48.3673 210.317 48.666C210.037 48.9647 209.864 49.394 209.799 49.954H212.963C212.944 49.3847 212.804 48.9553 212.543 48.666C212.282 48.3673 211.918 48.218 211.451 48.218Z" fill="#FF5722"/>
<path d="M129 55.4H214.979V56.1H129V55.4Z" fill="#FF5722"/>
<defs>
<clipPath id="clip0_665_210">
<rect width="95" height="95" fill="white"/>
</clipPath>
</defs>
</svg>
